<svg xmlns="http://www.w3.org/2000/svg" height="512" width="512"  xmlns:v="https://vecta.io/nano"><path d="M288.859 133.979c7.179 0 11.939-7.346 9.24-13.819-1.79-4.371-6.504-6.924-11.189-5.98-4.808.975-8.051 5.154-8.051 9.8 0 5.349 4.326 9.999 10 9.999zM256 288.27c49.977 0 90.635-40.658 90.635-90.635 0-20.43-6.996-40.467-19.698-56.42a10 10 0 1 0-15.647 12.457c10.039 12.608 15.345 27.81 15.345 43.963 0 38.948-31.687 70.635-70.635 70.635s-70.634-31.687-70.634-70.635c0-37.542 29.334-68.523 66.781-70.532 2.068-.111 3.956-.843 5.492-2.005 7.824-5.919 3.271-18.482-6.563-17.966-48.062 2.578-85.71 42.331-85.71 90.503-.001 49.976 40.658 90.635 90.634 90.635zM466.726 69.65H406.64c-3.065-4.503-4.976-5.618-17.601-18.474-13.5-13.498-35.467-13.498-48.967 0l-15.285 15.286c-7.91-4.157-16.165-7.581-24.677-10.234V34.625C300.111 15.533 284.579 0 265.486 0h-18.973c-19.092 0-34.625 15.533-34.625 34.625v21.604c-8.51 2.653-16.767 6.078-24.676 10.235l-15.286-15.287c-13.5-13.5-35.466-13.5-48.967 0-12.414 12.642-14.53 13.963-17.599 18.474H45.274c-24.358 0-44.175 19.816-44.175 44.175v234.428c0 24.288 19.747 44.175 44.174 44.175h173.272l-13.112 47.073H175.38c-18.064 0-32.76 14.696-32.76 32.761V492h-36.708c-5.523 0-10 4.478-10 10s4.477 10 10 10h300.176c5.522 0 10-4.478 10-10s-4.478-10-10-10H369.38v-19.738c0-18.064-14.696-32.761-32.76-32.761h-30.054l-13.112-47.073h173.273c24.358 0 44.175-19.816 44.175-44.175V113.825c-.001-24.358-19.817-44.175-44.176-44.175zm0 20c13.33 0 24.175 10.845 24.175 24.175V304.41h-78.414c-.445-8.416-3.909-16.58-10.03-22.702l-15.286-15.285c4.158-7.91 7.582-16.165 10.235-24.677l25.139-.179c17.438-1.776 31.09-16.546 31.09-34.446v-18.973c0-19.093-15.532-34.625-34.625-34.625h-21.604a147.17 147.17 0 0 0-10.235-24.677l15.286-15.285c6.631-6.631 10.018-15.314 10.151-23.911zM123.685 78.736l13.416-13.417c5.703-5.702 14.981-5.702 20.683 0l20.635 20.636c3.235 3.232 8.252 3.86 12.185 1.522 10.548-6.276 21.902-10.985 33.748-13.997a10 10 0 0 0 7.537-9.691V34.625c0-8.064 6.561-14.625 14.625-14.625h18.973c8.064 0 14.625 6.561 14.625 14.625v29.164a10 10 0 0 0 7.537 9.691 127.31 127.31 0 0 1 33.748 13.997c3.93 2.339 8.948 1.712 12.185-1.522l20.634-20.636a14.65 14.65 0 0 1 20.684 0c13.489 13.937 16.25 14.629 17.453 21.109.883 4.85-.698 9.649-4.037 12.99l-20.635 20.635a10 10 0 0 0-1.522 12.186c5.492 9.229 9.784 19.075 12.788 29.329a128.67 128.67 0 0 1 1.209 4.419 10 10 0 0 0 9.691 7.536h29.164c8.064 0 14.625 6.561 14.625 14.625v18.973c0 8.064-6.561 14.625-14.625 14.625h-29.164a10 10 0 0 0-9.691 7.537 127.31 127.31 0 0 1-13.997 33.748 10.25 10.25 0 0 0-.404.749 10 10 0 0 0 1.927 11.436c18.342 19.53 23.833 20.947 24.812 29.194H119.508a14.49 14.49 0 0 1 4.176-8.56l20.635-20.635a10 10 0 0 0 1.523-12.185 127.23 127.23 0 0 1-13.996-33.748 10 10 0 0 0-9.692-7.537H92.99c-8.064 0-14.625-6.561-14.625-14.625v-18.973c0-8.064 6.561-14.625 14.625-14.625h29.165a10 10 0 0 0 9.692-7.537 127.24 127.24 0 0 1 13.996-33.747 10 10 0 0 0-1.523-12.186c-20.23-20.473-20.9-20.459-22.566-23.027a14.64 14.64 0 0 1 1.931-18.289zM45.274 89.65h54.118a34.61 34.61 0 0 0 10.151 23.911l15.286 15.285c-4.157 7.91-7.582 16.167-10.235 24.677H92.99c-19.092 0-34.625 15.532-34.625 34.625v18.973c0 19.112 15.552 34.625 34.625 34.625h21.604c2.653 8.51 6.077 16.767 10.235 24.677l-15.286 15.285c-6.122 6.122-9.585 14.286-10.03 22.702H21.099V113.825c0-13.33 10.845-24.175 24.175-24.175zM349.38 472.262V492H162.62v-19.738a12.78 12.78 0 0 1 12.76-12.761h161.24a12.78 12.78 0 0 1 12.76 12.761zm-63.575-32.761h-59.611l13.112-47.073h33.386zm205.096-91.248c0 13.33-10.845 24.175-24.175 24.175H45.273c-13.369 0-24.175-10.882-24.175-24.175V324.41H490.9v23.843z"/></svg>